<?xml version="1.0" encoding="UTF-8" standalone="no"?>
<svg
   width="96"
   height="95.216797"
   viewBox="0 0 12 11.9021"
   version="1.1"
   id="svg1"
   sodipodi:docname="maki-ferry.svg"
   inkscape:version="1.3.2 (091e20e, 2023-11-25)"
   inkscape:export-filename="maki-ferry.png"
   inkscape:export-xdpi="96"
   inkscape:export-ydpi="96"
   xmlns:inkscape="http://www.inkscape.org/namespaces/inkscape"
   xmlns:sodipodi="http://sodipodi.sourceforge.net/DTD/sodipodi-0.dtd"
   xmlns="http://www.w3.org/2000/svg"
   xmlns:svg="http://www.w3.org/2000/svg">
  <defs
     id="defs1" />
  <sodipodi:namedview
     id="namedview1"
     pagecolor="#ffffff"
     bordercolor="#000000"
     borderopacity="0.25"
     inkscape:showpageshadow="2"
     inkscape:pageopacity="0.0"
     inkscape:pagecheckerboard="true"
     inkscape:deskcolor="#d1d1d1"
     inkscape:zoom="3.447977"
     inkscape:cx="25.3772"
     inkscape:cy="40.603519"
     inkscape:window-width="1920"
     inkscape:window-height="1027"
     inkscape:window-x="0"
     inkscape:window-y="25"
     inkscape:window-maximized="1"
     inkscape:current-layer="svg1"
     showborder="true" />
  <path
     fill="#000000"
     d="m 3.83,11.002099 c 0.674452,0.009 1.326189,0.245043 1.85,0.67 l 0.26,0.23 h 0.05 l 0.31,-0.28 c 0.9817189,-0.811488 2.378951,-0.884599 3.44,-0.18 L 12,7.0020994 l -1.5,-1 v -3.55 C 10.453405,1.6521181 9.801101,1.0215575 9,1.0020994 H 8.5 C 8.537516,0.43500099 8.0670985,-0.03541706 7.5,0.00209944 h -3 C 3.9329015,-0.03541706 3.4624835,0.43500099 3.5,1.0020994 H 3 c -0.8011008,0.019458 -1.4534049,0.6500187 -1.5,1.45 v 3.55 l -1.5,1 2.25,4.5299996 c 0.4642628,-0.325878 1.0131346,-0.509994 1.58,-0.53 M 2.5,2.4520994 c 0.010683,-0.2638146 0.2365215,-0.4670692 0.5,-0.45 h 6 c 0.283549,-0.018758 0.518758,0.2164508 0.5,0.5 v 3 l -3.5,-2 -3.5,1.95 z"
     id="path1"
     sodipodi:nodetypes="cccccccccccccccccccccccccccc" />
</svg>
