<svg xmlns="http://www.w3.org/2000/svg" width="500" height="500"><g transform="translate(0,-552.36218) matrix(0.65728749,0,0,0.67470959,118.94918,266.65263)"><rect width="96.815" height="103.616" x="-296.002" y="878.302" ry="0" style="fill:#000;fill-opacity:1;stroke:#000;stroke-width:14.67809582;stroke-miterlimit:4;stroke-opacity:1;stroke-dasharray:none" transform="matrix(1,0,0.44659941,0.89473402,0,0)"/><rect width="96.815" height="103.616" x="-691.213" y="878.302" ry="0" style="fill:#000;fill-opacity:1;stroke:#000;stroke-width:14.67809582;stroke-miterlimit:4;stroke-opacity:1;stroke-dasharray:none" transform="matrix(-1,0,-0.44659941,0.89473402,0,0)"/></g><path d="m311.367 800.08 86.29-59.36" style="fill:none;stroke:#000;stroke-width:12.74875355;stroke-linecap:butt;stroke-linejoin:miter;stroke-miterlimit:4;stroke-opacity:1;stroke-dasharray:none" transform="translate(0,-552.36218)"/><path d="m215.822 857.722-66.168 50.845M285.945 860.544l66.168 50.846" style="fill:none;stroke:#000;stroke-width:7.54171276;stroke-linecap:butt;stroke-linejoin:miter;stroke-miterlimit:4;stroke-opacity:1;stroke-dasharray:none" transform="translate(0,-552.36218)"/><path d="m184.755 797.905-86.29-59.36" style="fill:none;stroke:#000;stroke-width:12.74875355;stroke-linecap:butt;stroke-linejoin:miter;stroke-miterlimit:4;stroke-opacity:1;stroke-dasharray:none" transform="translate(0,-552.36218)"/><path d="M116.129 169.758c0 8.24-15.706 14.92-35.08 14.92-19.375 0-35.081-6.68-35.081-14.92s15.706-14.92 35.08-14.92c19.375 0 35.081 6.68 35.081 14.92z" style="fill:#000;fill-opacity:1;stroke:#000;stroke-width:10;stroke-miterlimit:4;stroke-opacity:1;stroke-dasharray:none" transform="translate(0,-552.36218) matrix(0.92544324,0,0,0.68124517,28.840592,617.90088)"/><path d="M116.129 169.758c0 8.24-15.706 14.92-35.08 14.92-19.375 0-35.081-6.68-35.081-14.92s15.706-14.92 35.08-14.92c19.375 0 35.081 6.68 35.081 14.92z" style="fill:#000;fill-opacity:1;stroke:#000;stroke-width:10;stroke-miterlimit:4;stroke-opacity:1;stroke-dasharray:none" transform="translate(0,-552.36218) matrix(0.94956086,0,0,0.68124517,325.74348,617.09442)"/><path d="M116.129 169.758c0 8.24-15.706 14.92-35.08 14.92-19.375 0-35.081-6.68-35.081-14.92s15.706-14.92 35.08-14.92c19.375 0 35.081 6.68 35.081 14.92z" style="fill:#000;fill-opacity:1;stroke:#000;stroke-width:10;stroke-miterlimit:4;stroke-opacity:1;stroke-dasharray:none" transform="translate(0,-552.36218) matrix(0.580844,0,0,0.52793053,313.88776,819.34663)"/><path d="M116.129 169.758c0 8.24-15.706 14.92-35.08 14.92-19.375 0-35.081-6.68-35.081-14.92s15.706-14.92 35.08-14.92c19.375 0 35.081 6.68 35.081 14.92z" style="fill:#000;fill-opacity:1;stroke:#000;stroke-width:10;stroke-miterlimit:4;stroke-opacity:1;stroke-dasharray:none" transform="translate(0,-552.36218) matrix(0.580844,0,0,0.52793053,89.694212,822.54017)"/><g fill="none"><path d="M197.448 186.174c-38.352 18.712-101.583 19.38-141.683 1.5" style="fill:#000;fill-opacity:0;stroke:#000;stroke-width:30.59680367;stroke-miterlimit:4;stroke-opacity:1;stroke-dasharray:none" transform="translate(0,-552.36218) translate(192.12172,117.17791) matrix(0.92746429,0,0,0.76748361,-205.26402,498.82827)"/><path d="M197.448 186.174c-38.352 18.712-101.583 19.38-141.683 1.5" style="fill:#000;fill-opacity:0;stroke:#000;stroke-width:30.59680367;stroke-miterlimit:4;stroke-opacity:1;stroke-dasharray:none" transform="translate(0,-552.36218) translate(192.12172,117.17791) matrix(0.92746429,0,0,-0.76748361,-205.76672,735.16169)"/></g><g fill="none"><path d="M197.448 186.174c-38.352 18.712-101.583 19.38-141.683 1.5" style="fill:#000;fill-opacity:0;stroke:#000;stroke-width:30.59680367;stroke-miterlimit:4;stroke-opacity:1;stroke-dasharray:none" transform="translate(0,-552.36218) translate(490.5462,116.60695) matrix(0.92746429,0,0,0.76748361,-205.26402,498.82827)"/><path d="M197.448 186.174c-38.352 18.712-101.583 19.38-141.683 1.5" style="fill:#000;fill-opacity:0;stroke:#000;stroke-width:30.59680367;stroke-miterlimit:4;stroke-opacity:1;stroke-dasharray:none" transform="translate(0,-552.36218) translate(490.5462,116.60695) matrix(0.92746429,0,0,-0.76748361,-205.76672,735.16169)"/></g><g fill="none"><path d="M197.448 186.174c-38.352 18.712-101.583 19.38-141.683 1.5" style="fill:#000;fill-opacity:0;stroke:#000;stroke-width:30.59680367;stroke-miterlimit:4;stroke-opacity:1;stroke-dasharray:none" transform="translate(0,-552.36218) matrix(0.72082356,0,0,0.68999188,199.39001,485.81887) matrix(0.92746429,0,0,0.76748361,-205.26402,498.82827)"/><path d="M197.448 186.174c-38.352 18.712-101.583 19.38-141.683 1.5" style="fill:#000;fill-opacity:0;stroke:#000;stroke-width:30.59680367;stroke-miterlimit:4;stroke-opacity:1;stroke-dasharray:none" transform="translate(0,-552.36218) matrix(0.72082356,0,0,0.68999188,199.39001,485.81887) matrix(0.92746429,0,0,-0.76748361,-205.76672,735.16169)"/></g><g fill="none"><path d="M197.448 186.174c-38.352 18.712-101.583 19.38-141.683 1.5" style="fill:#000;fill-opacity:0;stroke:#000;stroke-width:30.59680367;stroke-miterlimit:4;stroke-opacity:1;stroke-dasharray:none" transform="translate(0,-552.36218) matrix(0.72082356,0,0,0.68999188,423.89497,483.0763) matrix(0.92746429,0,0,0.76748361,-205.26402,498.82827)"/><path d="M197.448 186.174c-38.352 18.712-101.583 19.38-141.683 1.5" style="fill:#000;fill-opacity:0;stroke:#000;stroke-width:30.59680367;stroke-miterlimit:4;stroke-opacity:1;stroke-dasharray:none" transform="translate(0,-552.36218) matrix(0.72082356,0,0,0.68999188,423.89497,483.0763) matrix(0.92746429,0,0,-0.76748361,-205.76672,735.16169)"/></g></svg>